<?xml version="1.0" encoding="utf-8"?>
<!-- Generator: Adobe Illustrator 18.0.0, SVG Export Plug-In . SVG Version: 6.00 Build 0)  -->
<!DOCTYPE svg PUBLIC "-//W3C//DTD SVG 1.1//EN" "http://www.w3.org/Graphics/SVG/1.1/DTD/svg11.dtd">
<svg version="1.1" id="Layer_1" xmlns="http://www.w3.org/2000/svg" xmlns:xlink="http://www.w3.org/1999/xlink" x="0px" y="0px"
	 viewBox="0 0 810 649.9" enable-background="new 0 0 810 649.9" xml:space="preserve">
<path fill="#231F20" d="M708,641.5V151.6l26.2,2.2c2.6,0,2.6,0,71.2-128.7c0.7-1.3,0.6-2.8-0.1-4.1c-0.8-1.2-2.1-2-3.6-2l-14.6,0.2
	L708,20V8.3c0-1.7-1.1-3.2-2.5-3.8l-1.6-0.3H117.2c-1.7,0-3.2,1.1-3.8,2.5L113,8.3v61.3C82.3,76.2,48.1,84.1,7.1,96.5
	c-1.5,0.5-2.6,1.7-2.9,3.2l0,1.5L6.8,114c0.4,1.9,2,3.3,4,3.4c22,0.6,42.3,1.6,64.5,2.6c11.8,0.5,24.1,1.1,37.6,1.7
	c0,23.9,0.1,152.6,0.1,276c0,123.4,0,241.4,0,243.9c0,1.7,1.1,3.2,2.5,3.8l1.6,0.3h586.6c1.7,0,3.2-1,3.8-2.5L708,641.5z"/>
<path fill="#FFFFFF" d="M709.5,147.6l-5.7-0.5v494.4H117.2c0,0-0.1-523.9-0.1-523.9c-40.7-1.7-71.4-3.4-106.2-4.4l-2.5-12.7
	l32.1-9.2c30.6-8.3,56.4-14,76.7-18.3V8.3h586.6v15.8l36.9-0.4l46.5-0.5l14.5-0.2l-67.5,126.5L709.5,147.6z M787,15l-74.9,0.7V8.3
	l-0.2-1.7c-0.7-3.2-3.2-5.8-6.5-6.5L703.8,0H117.2l-1.7,0.2c-3.8,0.8-6.7,4.1-6.7,8.2v57.9c-30,6.5-63.3,14.3-102.9,26.3
	c-4.1,1.2-6.6,5.4-5.8,9.6l2.5,12.7c0.7,3.8,4,6.6,7.9,6.7c22,0.6,42.7,1.6,64.6,2.6c10.6,0.5,21.6,1,33.5,1.5
	c0.1,65,0.1,511.1,0.1,515.9c0,4.6,3.7,8.3,8.3,8.3h586.6l1.7-0.2c3.8-0.8,6.7-4.1,6.7-8.2V156.1l21.3,1.8c0.2,0,0.5,0,0.7,0
	c3.8,0,4.7,0,10.4-10.2l7.5-14L809,27c1.4-2.6,1.3-5.7-0.2-8.2c-1.1-1.9-2.9-3.2-5-3.7l-2.1-0.3L787,15z"/>
<path fill="#F9EC35" d="M449.9,160c-31.4,6.5-121.9,291.4-101.7,353.7c22.1-3.3,54.8-85.8,78.3-170.4
	C450.1,258.7,464.5,171.9,449.9,160"/>
<path fill="#F9EC35" d="M703.8,40.7l-69.6,1.1C469.5,45,289.6,53.7,118.9,89.5l-37.8,8.5c-6.3,1.4-6.4,1.5-6.3,1.5
	c4.2,0,13.4,0.1,22.3,0.1c8.9,0.1,17.4,0.1,20.1,0.2c188.8,1.9,375.4,11.2,587.2,29.4l6.5,0.5l13.5,1.2l48.4-90.9l-32,0.3
	L703.8,40.7z"/>
<polygon fill="#FFFFFF" points="145.6,625.3 155.7,625.3 155.7,578.1 168,578.1 168,570.1 133.2,570.1 133.2,578.2 145.6,578.2 "/>
<path fill="#FFFFFF" d="M179.8,625.3h10.2v-23.8h2.3c2.8,0,5,0.8,6.5,3l1.3,2.7l5.5,18h10.8l-7.3-21c-1.3-3.9-2.9-5.4-4.5-6
	l-1.5-0.4v-0.2c6.2-0.9,10.7-5.8,10.7-12.9c0-8.9-5.1-13.4-13-14.4l-3.5-0.2h-17.3L179.8,625.3z M189.9,594.1v-16.3h4.1
	c2.8,0,5.1,0.4,6.6,1.6s2.4,3.1,2.4,6.3c0,4.2-2,6.8-5.3,7.9l-3.7,0.5H189.9z"/>
<path fill="#FFFFFF" d="M260.7,625.3h10.4l-17.8-55.3h-11.1l-18.5,55.3h10.2l3.9-13.3h19L260.7,625.3z M239.9,604.3l7.6-25.8h0.2
	l7,25.8H239.9z"/>
<polygon fill="#FFFFFF" points="282.2,625.3 291.3,625.3 291.3,582.3 291.5,582.3 309.9,625.3 321.9,625.3 321.9,570.1 312.7,570.1 
	312.7,613.4 312.5,613.4 294.2,570.1 282.2,570.1 "/>
<path fill="#FFFFFF" d="M349.6,626c10.5,0,18.5-5.3,18.5-16.5c0-5.8-1.8-9.2-5.3-12.1l-4.2-2.8l-6-3.3c-3.1-1.8-5.9-3.4-5.9-7.5
	c0-3.8,2.6-6.4,7.7-6.4c2.3,0,4.3,0.3,6,0.8l4.3,1.6l0.5-8.5c-1.6-0.4-5.7-2-11.6-2c-9.2,0-17.4,5.2-17.4,15.1c0,5.3,2,9,5.3,11.9
	l3.7,2.6l5.1,2.9c4.9,2.7,7.3,4.5,7.3,8.3c0,2.8-1,4.8-2.6,6.1c-1.6,1.3-3.7,1.9-5.9,1.9c-2.7,0-5.1-0.5-7.1-1.2l-4.6-2.2l-0.5,9
	C339.8,625.3,344.1,626,349.6,626"/>
<polygon fill="#FFFFFF" points="426.3,625.3 435.5,625.3 435.5,570 420.8,570 409.2,611.3 409.1,611.3 397.7,570.1 382.6,570.1 
	382.6,625.3 391.8,625.3 391.8,579.2 391.9,579.2 405.1,625.3 412.3,625.3 426.2,579.2 426.3,579.2 "/>
<polygon fill="#FFFFFF" points="452,625.3 462.2,625.3 462.1,570 452,570 "/>
<polygon fill="#FFFFFF" points="478.3,625.3 506.6,625.3 506.6,617.3 488.4,617.3 488.4,570 478.2,570 "/>
<polygon fill="#FFFFFF" points="518.7,625.3 548.5,625.3 548.5,617.2 528.8,617.3 528.8,600.9 546.6,600.9 546.6,592.9 528.8,592.9 
	528.8,578.1 547.7,578.1 547.7,570 518.7,570 "/>
<polygon fill="#FFFFFF" points="562.9,625.3 572.1,625.3 572.1,582.3 572.2,582.3 590.5,625.3 602.7,625.3 602.7,570 593.4,570 
	593.4,613.4 593.3,613.4 574.9,570 562.9,570 "/>
<polygon fill="#FFFFFF" points="619.1,625.3 629.3,625.2 629.3,570 619.1,570 "/>
<path fill="#FFFFFF" d="M680.9,619.3c4.1-4.6,6.7-11.7,6.7-21.7c0-17.4-8-26.1-17.7-28l-4.3-0.4c-11.5,0-22,8.6-22,28.4
	c0,19.9,10.5,28.4,22,28.4C671.4,626,676.9,623.9,680.9,619.3 M665.6,618.3c-6.4,0-11.5-5.5-11.5-20.7c0-15.1,5.1-20.7,11.5-20.7
	c3.2,0,6.1,1.4,8.2,4.7c2.1,3.3,3.4,8.5,3.5,16c0,13.3-4,19.1-9.3,20.4L665.6,618.3z"/>
</svg>
