<svg width="344" height="221" viewBox="0 0 344 221" fill="none" xmlns="http://www.w3.org/2000/svg">
<g filter="url(#filter0_d_59260_23393)">
<path d="M310 14H26C19.3726 14 14 19.3726 14 26V187C14 193.627 19.3726 199 26 199H310C316.627 199 322 193.627 322 187V26C322 19.3726 316.627 14 310 14Z" fill="white"/>
</g>
<path fill-rule="evenodd" clip-rule="evenodd" d="M283.996 40.1981C280.588 40.4321 278.49 42.4111 278.125 45.3321C278.008 46.2555 278.105 47.1935 278.41 48.0731C278.688 48.7778 279.18 49.3778 279.816 49.7891C280.213 50.029 280.646 50.2039 281.099 50.3071C282.855 50.7991 285.271 50.4711 287.916 50.5681C288.35 47.1128 288.785 43.6571 289.221 40.2011C287.298 40.2911 285.775 40.0751 283.996 40.1981ZM284.996 47.9981C283.259 48.0141 282.274 48.1411 281.672 47.2261C281.515 47.0182 281.391 46.7871 281.305 46.5411C281.22 45.969 281.268 45.3848 281.447 44.8346C281.625 44.2844 281.929 43.7831 282.334 43.3701C283.312 42.5911 284.177 42.9421 285.644 42.8611C285.426 44.5698 285.21 46.2808 284.996 47.9941V47.9981Z" fill="#154176"/>
<path fill-rule="evenodd" clip-rule="evenodd" d="M295.79 45.4751C295.778 45.9837 295.614 46.477 295.318 46.8908C295.022 47.3046 294.609 47.6197 294.131 47.7951C293.534 47.9453 292.918 48.002 292.304 47.9631C292.633 45.3631 292.959 42.7631 293.284 40.1631H290L288.688 50.5291C288.688 50.5291 292.314 50.6471 293.872 50.5341C294.774 50.5261 295.66 50.286 296.442 49.837C297.225 49.3879 297.879 48.745 298.342 47.9701C298.671 47.325 298.914 46.6395 299.064 45.9311L299.789 40.1731H296.46C296.46 40.1731 295.968 44.0521 295.79 45.4751Z" fill="#154176"/>
<path fill-rule="evenodd" clip-rule="evenodd" d="M270.53 40.5706C270.293 42.4386 269.43 49.2706 269.243 50.7936C270.353 50.7936 272.443 50.7826 272.443 50.7826L274.13 37.3926C274.13 37.3926 270.83 38.1936 270.53 40.5706Z" fill="#154176"/>
<path fill-rule="evenodd" clip-rule="evenodd" d="M274.669 40.5234C274.434 42.3874 273.574 49.2234 273.383 50.7414L276.714 50.7464L278.401 37.3564C278.401 37.3564 274.971 38.1464 274.669 40.5234Z" fill="#154176"/>
<path fill-rule="evenodd" clip-rule="evenodd" d="M306.746 39.9756C306.11 39.9356 305.471 39.9638 304.841 40.0596C303.547 40.3035 302.368 40.9617 301.482 41.9348C300.595 42.9079 300.05 44.143 299.927 45.4536C299.829 46.3496 299.93 47.2561 300.222 48.1086C300.26 48.1996 300.528 48.7086 300.589 48.7966C300.979 49.304 301.481 49.7147 302.056 49.9966C303.806 50.8286 306.371 50.4166 309.203 50.5166C309.311 49.6573 309.418 48.8003 309.525 47.9456C306.838 47.8576 303.319 48.4696 303.165 46.2296H310.195C310.843 42.7516 309.647 40.2796 306.746 39.9756ZM303.301 44.4296C303.637 43.7956 303.781 43.1726 304.401 42.8046C305.734 42.0116 307.401 42.7636 307.168 44.4336C305.884 44.4316 304.59 44.4296 303.301 44.4296Z" fill="#154176"/>
<path d="M263.544 50.7082C261.472 50.5532 260.164 49.6082 259.724 48.1342C259.556 47.4699 259.485 46.7848 259.514 46.1002L260.236 40.3402H263.57C263.57 40.3402 263.083 44.2202 262.903 45.6402C262.765 46.0919 262.799 46.5786 262.998 47.0068C263.197 47.4351 263.548 47.7746 263.982 47.9602C264.562 48.1144 265.163 48.1722 265.761 48.1312C266.087 45.5312 266.415 42.9332 266.744 40.3372C267.827 40.3372 269.744 40.3082 269.744 40.3082L269.749 40.3152H269.767C269.766 40.3078 269.764 40.3006 269.76 40.2942C268.878 37.7076 267.103 35.5202 264.753 34.1252C262.403 32.7303 259.633 32.2192 256.94 32.6838C254.247 33.1484 251.808 34.5583 250.061 36.6601C248.315 38.7619 247.375 41.4177 247.411 44.1502C247.396 47.2155 248.6 50.1612 250.756 52.3398C252.912 54.5184 255.846 55.7515 258.911 55.7682C260.791 55.7645 262.641 55.2979 264.298 54.4094C265.955 53.521 267.368 52.2381 268.411 50.6742C268.18 50.6912 265.014 50.8172 263.544 50.7082ZM258.786 50.7552C258.165 50.7552 257.577 50.7382 257.155 50.7082C255.084 50.5532 253.774 49.6082 253.333 48.1342C253.167 47.4692 253.097 46.7839 253.126 46.0992L253.471 43.3242C253.647 41.9312 254.312 37.3522 254.312 37.3522H257.557C257.557 37.3522 257.399 38.6072 257.206 40.1572H258.882L258.482 43.3272H256.804C256.675 44.3602 256.566 45.2352 256.514 45.6492C256.376 46.1009 256.41 46.5876 256.609 47.0158C256.808 47.4441 257.159 47.7836 257.593 47.9692C258.087 48.1147 258.603 48.1712 259.117 48.1362L258.786 50.7552Z" fill="#154176"/>
<mask id="mask0_59260_23393" style="mask-type:luminance" maskUnits="userSpaceOnUse" x="14" y="14" width="308" height="186">
<path d="M310 14.001H26C19.3726 14.001 14 19.3736 14 26.001V187.001C14 193.628 19.3726 199.001 26 199.001H310C316.627 199.001 322 193.628 322 187.001V26.001C322 19.3736 316.627 14.001 310 14.001Z" fill="white"/>
</mask>
<g mask="url(#mask0_59260_23393)">
<path d="M29.028 -100.53C143.511 -100.53 236.318 -7.72328 236.318 106.76C236.318 221.243 143.511 314.05 29.028 314.05C-85.455 314.05 -178.262 221.243 -178.262 106.76C-178.262 -7.72328 -85.455 -100.53 29.028 -100.53Z" fill="#C0D73B"/>
<g opacity="0.399">
<path d="M4.5 282.5C102.807 282.5 182.5 203.702 182.5 106.5C182.5 9.29788 102.807 -69.5 4.5 -69.5C-93.8067 -69.5 -173.5 9.29788 -173.5 106.5C-173.5 203.702 -93.8067 282.5 4.5 282.5Z" stroke="white"/>
</g>
<g opacity="0.747">
<path d="M50 185.501C93.9067 185.501 129.5 150.131 129.5 106.501C129.5 62.8705 93.9067 27.501 50 27.501C6.09339 27.501 -29.5 62.8705 -29.5 106.501C-29.5 150.131 6.09339 185.501 50 185.501Z" stroke="white"/>
</g>
</g>
<path d="M277.413 184.734L277.056 183.775L276.707 184.734H277.413ZM278.372 185.754H277.805L277.578 185.161H276.541L276.323 185.754H275.765L276.776 183.165H277.334L278.372 185.754Z" fill="black"/>
<path d="M278.511 185.754V183.191H279.034V185.318H280.334V185.754H278.511Z" fill="black"/>
<path d="M282.208 184.803L282.714 184.96C282.658 185.208 282.523 185.431 282.33 185.596C282.098 185.754 281.818 185.826 281.538 185.801C281.259 185.775 280.996 185.654 280.796 185.457C280.566 185.192 280.448 184.849 280.465 184.498C280.444 184.135 280.563 183.778 280.796 183.498C280.909 183.38 281.047 183.287 281.198 183.226C281.35 183.164 281.513 183.135 281.677 183.141C281.962 183.132 282.24 183.232 282.453 183.42C282.583 183.553 282.673 183.719 282.715 183.899L282.201 184.021C282.178 183.896 282.11 183.784 282.009 183.707C281.907 183.629 281.781 183.589 281.652 183.594C281.563 183.592 281.474 183.61 281.393 183.646C281.311 183.682 281.239 183.736 281.181 183.803C281.042 183.998 280.977 184.236 280.998 184.474C280.977 184.721 281.038 184.967 281.172 185.174C281.228 185.243 281.298 185.297 281.378 185.333C281.459 185.37 281.546 185.387 281.634 185.383C281.765 185.387 281.893 185.34 281.991 185.252C282.103 185.127 282.178 184.973 282.209 184.807L282.208 184.803Z" fill="black"/>
<path d="M284.388 184.734L284.031 183.775L283.682 184.734H284.388ZM285.347 185.754H284.78L284.553 185.161H283.516L283.298 185.754H282.74L283.751 183.165H284.309L285.347 185.754Z" fill="black"/>
<path d="M285.486 185.754V183.191H286.009V185.318H287.309V185.754H285.486Z" fill="black"/>
<path d="M288.049 183.609V185.318H288.441C288.546 185.322 288.652 185.314 288.755 185.292C288.832 185.277 288.904 185.242 288.964 185.192C289.031 185.121 289.079 185.034 289.103 184.939C289.143 184.786 289.16 184.627 289.155 184.468C289.16 184.313 289.143 184.157 289.103 184.006C289.074 183.912 289.023 183.825 288.955 183.753C288.886 183.692 288.801 183.65 288.711 183.631C288.57 183.609 288.427 183.6 288.284 183.605H288.049V183.609ZM287.526 183.173H288.485C288.649 183.167 288.814 183.184 288.973 183.225C289.122 183.269 289.256 183.35 289.365 183.46C289.479 183.577 289.563 183.721 289.609 183.878C289.669 184.076 289.699 184.282 289.696 184.488C289.7 184.674 289.674 184.86 289.618 185.037C289.566 185.21 289.47 185.366 289.339 185.49C289.235 185.587 289.11 185.659 288.973 185.699C288.822 185.738 288.667 185.756 288.511 185.751H287.526V183.173Z" fill="black"/>
<path d="M289.976 183.173H290.499V185.762H289.976V183.173ZM289.976 185.754L290.107 182.929L290.351 182.406H290.909L290.43 182.929L289.976 185.754Z" fill="black"/>
<path d="M292.217 184.734L291.86 183.775L291.511 184.734H292.217ZM293.176 185.754H292.609L292.382 185.161H291.345L291.127 185.754H290.569L291.58 183.165H292.138L293.175 185.754H293.176Z" fill="black"/>
<path d="M294.012 185.754V183.173H294.797L295.259 184.934L295.721 183.173H296.506V185.754H296.027V183.723L295.513 185.754H295.007L294.493 183.723V185.754H294.012Z" fill="black"/>
<path d="M298.249 184.734L297.892 183.775L297.543 184.734H298.249ZM299.208 185.754H298.641L298.414 185.161H297.377L297.159 185.754H296.61L297.61 183.165H298.168L299.205 185.754H299.208Z" fill="black"/>
<path d="M299.68 185.754V184.664L298.738 183.173H299.348L299.958 184.193L300.551 183.173H301.161L300.202 184.673V185.754H299.68Z" fill="black"/>
<path d="M301.693 184.464C301.676 184.702 301.747 184.938 301.893 185.127C301.959 185.198 302.038 185.255 302.127 185.294C302.215 185.333 302.311 185.353 302.407 185.353C302.504 185.353 302.6 185.333 302.688 185.294C302.777 185.255 302.856 185.198 302.922 185.127C303.067 184.935 303.138 184.697 303.122 184.456C303.141 184.219 303.073 183.983 302.93 183.793C302.862 183.724 302.782 183.669 302.693 183.632C302.604 183.595 302.508 183.575 302.411 183.575C302.315 183.575 302.219 183.595 302.13 183.632C302.041 183.669 301.961 183.724 301.893 183.793C301.748 183.985 301.677 184.224 301.693 184.464ZM301.152 184.481C301.146 184.254 301.188 184.028 301.274 183.818C301.334 183.686 301.416 183.565 301.518 183.461C301.614 183.364 301.726 183.284 301.849 183.226C302.026 183.156 302.216 183.122 302.407 183.126C302.576 183.119 302.745 183.147 302.902 183.208C303.06 183.27 303.203 183.363 303.322 183.483C303.561 183.754 303.683 184.108 303.662 184.468C303.673 184.645 303.648 184.823 303.59 184.99C303.531 185.158 303.44 185.312 303.322 185.444C303.074 185.673 302.75 185.8 302.413 185.802C302.076 185.803 301.75 185.679 301.5 185.453C301.379 185.324 301.286 185.171 301.226 185.005C301.166 184.839 301.141 184.662 301.151 184.485L301.152 184.481Z" fill="black"/>
<path d="M304.448 184.266H304.832C304.99 184.276 305.148 184.264 305.303 184.231C305.361 184.213 305.413 184.178 305.451 184.131C305.488 184.073 305.506 184.006 305.503 183.939C305.505 183.863 305.481 183.789 305.433 183.73C305.379 183.675 305.309 183.64 305.233 183.63C305.105 183.619 304.977 183.616 304.849 183.621H304.439V184.275L304.448 184.266ZM303.925 185.757V183.166H305.025C305.227 183.157 305.43 183.181 305.625 183.236C305.75 183.28 305.856 183.366 305.925 183.48C306.003 183.602 306.042 183.745 306.038 183.89C306.043 184.066 305.981 184.237 305.864 184.369C305.729 184.509 305.545 184.593 305.35 184.604C305.453 184.663 305.547 184.736 305.629 184.822C305.741 184.952 305.841 185.092 305.929 185.24L306.243 185.746H305.615L305.24 185.179C305.154 185.045 305.061 184.917 304.961 184.795C304.917 184.75 304.863 184.716 304.804 184.695C304.718 184.673 304.63 184.665 304.542 184.669H304.442V185.75H303.925V185.757Z" fill="black"/>
<path d="M300.717 189.206H301.205V189.685H300.717V189.206Z" fill="black"/>
<path d="M277.918 187.846V189.519H278.302C278.407 189.522 278.513 189.513 278.616 189.493C278.693 189.479 278.766 189.445 278.825 189.393C278.888 189.323 278.933 189.24 278.956 189.149C278.995 188.998 279.013 188.843 279.008 188.687C279.014 188.537 278.997 188.387 278.956 188.242C278.927 188.15 278.876 188.067 278.808 187.998C278.742 187.937 278.661 187.895 278.573 187.876C278.435 187.854 278.295 187.845 278.155 187.85L277.918 187.846ZM277.404 187.419H278.337C278.499 187.413 278.66 187.431 278.817 187.471C278.964 187.513 279.097 187.594 279.201 187.706C279.307 187.826 279.39 187.965 279.445 188.116C279.505 188.31 279.534 188.513 279.532 188.716C279.536 188.899 279.509 189.082 279.454 189.257C279.4 189.424 279.307 189.577 279.184 189.702C279.083 189.797 278.961 189.866 278.827 189.902C278.679 189.941 278.527 189.959 278.374 189.954H277.415V187.419H277.404Z" fill="black"/>
<path d="M279.819 189.947V187.419H281.693V187.846H280.333V188.404H281.597V188.84H280.333V189.52H281.733V189.947H279.819Z" fill="black"/>
<path d="M283.376 188.849V189.52H283.847C283.964 189.523 284.08 189.517 284.196 189.503C284.268 189.495 284.333 189.459 284.379 189.403C284.405 189.373 284.425 189.339 284.437 189.301C284.449 189.264 284.453 189.224 284.449 189.185C284.452 189.117 284.434 189.05 284.397 188.993C284.358 188.939 284.303 188.9 284.24 188.88C284.091 188.848 283.939 188.836 283.787 188.845H283.377L283.376 188.849ZM283.376 187.838V188.422H283.707C283.832 188.426 283.957 188.423 284.082 188.413C284.159 188.406 284.232 188.375 284.291 188.326C284.317 188.3 284.338 188.269 284.351 188.234C284.365 188.2 284.371 188.163 284.369 188.126C284.369 188.057 284.348 187.99 284.308 187.934C284.284 187.907 284.254 187.886 284.221 187.871C284.188 187.856 284.152 187.848 284.116 187.847C284.064 187.838 283.924 187.838 283.68 187.838H283.376ZM282.862 187.42H283.873C284.022 187.416 284.171 187.425 284.318 187.446C284.411 187.461 284.5 187.495 284.58 187.546C284.659 187.6 284.725 187.672 284.772 187.755C284.826 187.846 284.853 187.95 284.85 188.055C284.849 188.17 284.814 188.283 284.75 188.378C284.687 188.478 284.596 188.556 284.488 188.605C284.628 188.641 284.753 188.721 284.845 188.832C284.93 188.941 284.974 189.077 284.967 189.216C284.966 189.334 284.94 189.45 284.889 189.556C284.839 189.66 284.764 189.75 284.671 189.818C284.568 189.883 284.452 189.925 284.331 189.94C284.244 189.949 284.043 189.957 283.712 189.957H282.853V187.419L282.862 187.42Z" fill="black"/>
<path d="M285.687 188.682C285.671 188.918 285.742 189.15 285.887 189.336C285.95 189.408 286.028 189.465 286.115 189.503C286.203 189.541 286.298 189.558 286.393 189.554C286.488 189.558 286.583 189.54 286.67 189.502C286.758 189.464 286.836 189.408 286.899 189.336C287.042 189.146 287.11 188.911 287.091 188.673C287.111 188.442 287.042 188.212 286.899 188.028C286.835 187.959 286.756 187.905 286.669 187.869C286.581 187.833 286.487 187.816 286.393 187.819C286.298 187.815 286.202 187.832 286.115 187.87C286.027 187.907 285.949 187.965 285.887 188.037C285.813 188.127 285.757 188.229 285.723 188.34C285.689 188.451 285.676 188.567 285.687 188.682ZM285.155 188.699C285.146 188.479 285.185 188.259 285.268 188.054C285.328 187.927 285.407 187.809 285.503 187.705C285.596 187.607 285.709 187.529 285.834 187.478C286.008 187.407 286.195 187.373 286.383 187.378C286.549 187.37 286.715 187.397 286.87 187.457C287.025 187.517 287.166 187.609 287.283 187.727C287.4 187.859 287.489 188.012 287.546 188.178C287.603 188.344 287.626 188.52 287.614 188.695C287.634 189.046 287.515 189.391 287.283 189.654C287.04 189.879 286.721 190.003 286.39 190.003C286.058 190.003 285.74 189.879 285.496 189.654C285.379 189.527 285.289 189.377 285.231 189.214C285.172 189.051 285.147 188.877 285.156 188.704L285.155 188.699Z" fill="black"/>
<path d="M289.043 189.023V188.596H290.143V189.596C290.007 189.717 289.851 189.811 289.681 189.875C289.484 189.954 289.274 189.996 289.062 189.997C288.822 190.005 288.584 189.947 288.373 189.831C288.181 189.719 288.026 189.552 287.928 189.352C287.83 189.142 287.779 188.913 287.78 188.681C287.775 188.436 287.832 188.193 287.946 187.975C288.058 187.773 288.228 187.609 288.434 187.504C288.621 187.416 288.827 187.374 289.034 187.382C289.296 187.369 289.555 187.439 289.775 187.582C289.952 187.717 290.073 187.913 290.115 188.131L289.609 188.231C289.578 188.112 289.508 188.006 289.409 187.931C289.301 187.86 289.173 187.825 289.043 187.831C288.945 187.826 288.846 187.842 288.754 187.878C288.663 187.914 288.58 187.97 288.511 188.04C288.366 188.216 288.295 188.441 288.311 188.668C288.295 188.909 288.366 189.147 288.511 189.339C288.576 189.414 288.657 189.472 288.747 189.512C288.837 189.551 288.935 189.57 289.034 189.566C289.145 189.567 289.254 189.547 289.357 189.505C289.454 189.465 289.548 189.415 289.636 189.357V189.043H289.043V189.023Z" fill="black"/>
<path d="M290.891 188.682C290.875 188.918 290.946 189.15 291.091 189.336C291.154 189.408 291.232 189.465 291.319 189.503C291.407 189.541 291.502 189.558 291.597 189.554C291.692 189.558 291.787 189.54 291.874 189.502C291.962 189.464 292.04 189.408 292.103 189.336C292.246 189.146 292.314 188.911 292.295 188.673C292.315 188.442 292.246 188.212 292.103 188.028C292.039 187.959 291.96 187.905 291.873 187.869C291.785 187.833 291.691 187.816 291.597 187.819C291.502 187.815 291.406 187.832 291.319 187.87C291.231 187.907 291.153 187.965 291.091 188.037C291.017 188.127 290.961 188.229 290.927 188.34C290.893 188.451 290.88 188.567 290.891 188.682ZM290.359 188.699C290.351 188.479 290.389 188.259 290.472 188.054C290.532 187.927 290.611 187.809 290.707 187.705C290.8 187.607 290.913 187.529 291.038 187.478C291.209 187.408 291.394 187.374 291.579 187.378C291.745 187.37 291.911 187.397 292.066 187.457C292.221 187.517 292.362 187.609 292.479 187.727C292.596 187.859 292.685 188.012 292.742 188.178C292.799 188.344 292.822 188.52 292.81 188.695C292.83 189.046 292.711 189.391 292.479 189.654C292.236 189.879 291.917 190.003 291.586 190.003C291.255 190.003 290.936 189.879 290.692 189.654C290.463 189.393 290.344 189.052 290.361 188.704L290.359 188.699Z" fill="black"/>
<path d="M293.638 189.947V187.847H292.888V187.419H294.902V187.846H294.152V189.946L293.638 189.947Z" fill="black"/>
<path d="M295.895 187.183L296.13 186.669H296.671L296.2 187.183H295.895ZM296.418 188.944L296.069 188.011L295.729 188.944H296.418ZM297.36 189.944H296.802L296.584 189.369H295.573L295.364 189.944H294.823L295.808 187.416H296.349L297.36 189.944Z" fill="black"/>
<path d="M298.824 187.846V189.519H299.208C299.31 189.523 299.413 189.514 299.513 189.493C299.59 189.478 299.662 189.443 299.722 189.393C299.785 189.324 299.83 189.24 299.853 189.149C299.892 188.998 299.91 188.843 299.905 188.687C299.911 188.537 299.894 188.387 299.853 188.242C299.827 188.149 299.776 188.064 299.705 187.998C299.639 187.937 299.558 187.895 299.47 187.876C299.332 187.854 299.192 187.845 299.052 187.85L298.824 187.846ZM298.31 187.419H299.243C299.405 187.413 299.566 187.43 299.723 187.471C299.87 187.513 300.003 187.594 300.107 187.706C300.213 187.826 300.296 187.965 300.351 188.116C300.411 188.31 300.44 188.513 300.438 188.716C300.442 188.9 300.415 189.082 300.36 189.257C300.306 189.425 300.213 189.577 300.09 189.702C299.989 189.797 299.867 189.866 299.733 189.902C299.585 189.941 299.433 189.959 299.28 189.954H298.321V187.419H298.31Z" fill="black"/>
<path d="M303.175 189.014L303.675 189.171C303.62 189.415 303.485 189.633 303.291 189.79C303.063 189.942 302.789 190.011 302.517 189.985C302.244 189.96 301.988 189.842 301.791 189.651C301.678 189.523 301.591 189.374 301.536 189.212C301.48 189.051 301.457 188.88 301.468 188.709C301.448 188.351 301.566 187.998 301.799 187.724C301.908 187.608 302.041 187.517 302.188 187.457C302.335 187.397 302.494 187.369 302.653 187.375C302.792 187.368 302.93 187.39 303.06 187.438C303.191 187.486 303.31 187.559 303.411 187.654C303.539 187.785 303.63 187.947 303.673 188.125L303.167 188.247C303.142 188.125 303.078 188.015 302.984 187.933C302.885 187.855 302.761 187.815 302.635 187.82C302.549 187.817 302.464 187.834 302.386 187.868C302.307 187.903 302.238 187.955 302.182 188.02C302.05 188.211 301.988 188.443 302.008 188.674C301.986 188.914 302.047 189.154 302.182 189.354C302.236 189.421 302.306 189.474 302.384 189.509C302.463 189.544 302.549 189.559 302.635 189.554C302.764 189.557 302.889 189.51 302.984 189.423C303.08 189.304 303.146 189.163 303.176 189.013L303.175 189.014Z" fill="black"/>
<path d="M303.951 189.206H304.439V189.685H303.951V189.206Z" fill="black"/>
<path fill-rule="evenodd" clip-rule="evenodd" d="M290.742 180.662C287.56 178.613 280.271 179.555 279.679 175.17V155.092C285.45 156.26 284.858 156.147 290.742 154.778C294.642 155.946 297.908 156.652 301.842 155.092V175.178C301.328 178.962 293.9 179.188 290.742 180.662Z" fill="#0C2C84"/>
<path fill-rule="evenodd" clip-rule="evenodd" d="M286.366 175.257L285.991 175.118L285.538 174.979L285.085 174.717L284.658 174.525L284.283 174.176L283.943 173.862L283.716 173.409L283.629 173.043V159.19L284.056 159.356L284.509 159.469L284.971 159.556L285.512 159.695L285.992 159.73L286.506 159.782L287.02 159.843H288.04L288.52 159.782L288.92 159.695L289.32 159.556L289.634 159.469L290 159.356L290.453 159.129L290.941 158.902L291.394 159.129L291.847 159.356L292.222 159.469L292.536 159.556L292.928 159.695L293.303 159.782L293.756 159.843H294.837L295.378 159.782L295.945 159.73L296.459 159.695L296.973 159.556L297.365 159.469L297.792 159.356L298.167 159.19V173.043L298.132 173.409L297.905 173.809L297.652 174.149L297.252 174.437L296.825 174.716L296.345 174.943L295.945 175.117L295.492 175.256L294.838 175.343L294.271 175.456L293.671 175.569L293.157 175.682L292.59 175.83L292.049 176.057L291.535 176.284L290.942 176.598L290.314 176.284L289.747 176.057L289.206 175.83L288.692 175.682L288.125 175.569L287.525 175.456L287.019 175.343L286.366 175.257Z" fill="#FFDB01"/>
<path fill-rule="evenodd" clip-rule="evenodd" d="M287.752 174.718L287.264 174.692L287.29 174.666L287.229 174.492L287.29 174.126L287.264 173.812L287.151 173.412L287.038 173.159L286.899 173.02L286.725 172.706L287.125 172.506L287.238 172.192L287.377 172.445L287.403 172.698L287.516 172.898L287.603 173.125L287.577 173.264L287.664 172.95L287.838 172.697L288.012 172.497L288.239 172.384L288.518 172.332L288.832 172.306L288.771 172.646L288.687 172.926L288.6 173.126L288.426 173.3L288.199 173.413L287.946 173.474L287.746 173.5L287.659 173.474L287.746 173.613L287.807 173.866L287.894 174.18L287.92 174.433V174.686L287.754 174.712L287.752 174.718ZM284.936 170.141L285.25 169.941L285.224 169.741V169.602L285.285 169.515L285.424 169.428H285.287L285.2 169.454L285.113 169.541L285.026 169.68L284.738 169.427L284.764 169.793L284.738 169.819H284.564L284.477 169.88L284.39 170.054L284.503 169.967L284.59 169.941L284.677 169.915L284.79 169.976L284.851 170.028L284.938 170.141H284.936ZM285.11 170.141C284.979 170.2 284.862 170.285 284.766 170.391C284.67 170.497 284.596 170.622 284.551 170.758C284.505 170.894 284.487 171.037 284.5 171.18C284.512 171.323 284.554 171.462 284.622 171.588C284.814 171.77 285.062 171.883 285.325 171.909C285.588 171.936 285.853 171.875 286.078 171.736C286.087 171.736 286.095 171.727 286.104 171.727L286.017 171.84L285.904 171.901L285.765 171.962L285.652 172.023L285.513 172.049L285.652 172.11H285.852L286.026 172.084L286.165 171.997L286.252 171.91L286.313 172.049L286.54 171.936L286.479 171.823L286.592 171.736L286.758 171.649L286.845 171.536L286.871 171.423L286.845 171.249L286.758 171.362L286.645 171.475L286.471 171.588L286.297 171.614L286.271 171.623C286.396 171.56 286.507 171.473 286.598 171.367C286.689 171.26 286.757 171.137 286.8 171.003C286.842 170.87 286.857 170.73 286.844 170.59C286.831 170.451 286.79 170.316 286.724 170.193C286.51 169.985 286.226 169.865 285.928 169.855C285.629 169.845 285.337 169.947 285.11 170.141ZM286.191 171.588L286.252 171.274L286.191 170.934L286.104 170.681L285.93 170.428L285.703 170.228L285.476 170.115L285.188 170.141L285.075 170.368L285.127 170.734L285.214 170.987L285.327 171.161L285.527 171.361L285.701 171.474L285.928 171.535L286.19 171.587L286.191 171.588Z" fill="#FC0701"/>
<path fill-rule="evenodd" clip-rule="evenodd" d="M291.348 160.889H290.066L289.918 160.723L289.778 160.461L289.639 160.269L289.552 160.095L289.726 160.182L289.892 160.269L290.119 160.347H290.433L290.546 160.094L290.607 159.894L290.694 159.694L290.746 159.868L290.772 160.095L290.92 160.348H291.147L291.426 160.27L291.6 160.183L291.827 160.07L291.714 160.236L291.627 160.384L291.514 160.611L291.348 160.889Z" fill="black"/>
<path fill-rule="evenodd" clip-rule="evenodd" d="M291.109 161.238L289.409 161.203L289.322 161.316L289.183 161.438V162.17H289.863L290.002 162.37L289.976 163.652L289.915 163.94L289.662 164.14L289.435 164.253L289.095 164.192L288.895 164.105L288.808 163.966L288.721 163.626L288.669 163.199L288.582 162.999L288.443 162.746L288.295 162.572L288.156 162.433L287.956 162.32L287.703 162.172L287.363 162.059L287.023 161.946L286.674 161.833L286.369 161.694L286.081 161.633L285.767 161.467L285.479 161.354L285.313 161.267L285.051 161.18L284.798 161.014L284.624 160.866L284.397 160.7L284.144 160.412L284.057 160.891L284.118 161.466L284.257 161.719L284.37 162.033L284.57 162.233L284.858 162.599L285.163 162.799L285.451 163.026L285.791 163.226L286.131 163.339L286.419 163.513L286.672 163.626L286.367 163.678L285.94 163.652H285.452L285.138 163.591L284.798 163.539L284.484 163.426L284.284 163.313L284.345 163.566L284.432 163.74L284.571 164.019L284.771 164.307L285.085 164.595L285.338 164.795L285.678 164.987L285.905 165.074L286.219 165.161L286.507 165.187L286.673 165.248L287.073 165.335L286.646 165.527L286.332 165.675L286.105 165.727L285.817 165.814L285.512 165.84L285.137 165.875L284.884 165.901L285.05 166.04L285.25 166.188L285.512 166.38L285.765 166.554L285.992 166.667L286.306 166.78L286.62 166.806L286.96 166.841L287.335 166.806L287.841 166.719L287.562 167.007L287.274 167.207L287.074 167.346L286.874 167.407L286.595 167.52L286.307 167.572H286.08L285.88 167.546L285.993 167.72L286.307 167.92L286.595 168.033L286.935 168.172L287.301 168.146L287.728 168.085L288.068 167.998L288.295 167.946L288.522 167.859L288.784 167.72L288.671 168.06L288.497 168.287L288.358 168.426L288.184 168.539L288.018 168.687L287.844 168.739L287.678 168.765L287.504 168.826L287.792 169.026L288.106 169.113H288.524L288.986 169L289.186 168.913L289.378 168.852L289.578 168.739L289.726 168.652L289.839 168.539L290.005 168.574L290.118 168.766L289.979 168.94L289.726 169.114L289.351 169.306L289.072 169.533L288.784 169.707L288.496 169.934L288.182 170.222L287.955 170.736L288.295 170.649L288.042 171.015L287.903 171.154L287.703 171.328L287.503 171.555L287.337 171.729L287.163 171.842H286.989L286.71 171.816L286.37 171.868L286.17 171.955L286.022 172.155L285.996 172.408L286.057 172.608L286.249 172.896L286.449 173.062L286.763 173.236L287.051 173.201L286.938 172.948L287.104 172.721L287.479 172.808L287.531 172.546L287.479 172.267L287.531 172.18L287.731 172.041L288.019 171.841L288.272 171.667L288.499 171.501L288.761 171.327L288.988 171.188L289.215 171.127L289.154 171.441L289.102 171.615L289.355 171.415L289.529 171.302L289.695 171.215L289.869 171.128L289.695 171.616L289.582 171.93L289.495 172.209L289.443 172.471V172.785L289.495 173.064L289.643 172.925L289.782 172.751L290.096 172.673L290.035 172.926L289.983 173.379L290.009 173.893L290.096 174.434L290.209 174.713L290.322 175.001L290.461 175.254L290.635 175.568L290.722 175.716L290.922 175.316L291.061 175.063L291.174 174.775L291.287 174.435L291.348 174.235L291.374 173.581V173.154L291.287 172.64L291.575 172.788L291.828 172.954L292.002 173.067L291.941 172.701L291.915 172.361L291.889 172.099L291.802 171.759L291.715 171.506L291.602 171.279L291.576 171.105L291.803 171.192L292.03 171.279L292.257 171.418L292.457 171.505L292.71 171.671L292.658 171.471L292.597 171.332L292.997 171.445L293.25 171.645L293.477 171.784L293.826 172.072L293.965 172.325L293.991 172.674L294.13 172.927L294.357 173.093H294.732L295.011 173.015L295.273 172.675L295.299 172.3L295.16 172.047L294.96 171.873L294.594 171.786L294.306 171.847L294.132 171.873L293.966 171.707L293.739 171.472L293.425 171.193L293.277 170.931L293.164 170.739V170.678H293.452L293.565 170.652L293.399 170.252L293.137 169.999L292.858 169.772L292.483 169.484L292.143 169.31L291.829 169.171L291.602 169.032L291.463 168.858L291.515 168.658L291.689 168.606L292.081 168.806L292.456 168.945L292.796 169.032L293.31 169.119L293.624 169.084L293.903 169.006L294.278 168.806L293.711 168.632L293.397 168.458L293.162 168.179L293.023 167.952L292.997 167.804L293.197 167.926L293.563 168.039L294.163 168.117H294.756L295.183 168.004L295.436 167.838L295.811 167.55H295.497L295.157 167.498L294.843 167.437L294.59 167.35L294.355 167.211L294.163 167.037L294.015 166.898L293.876 166.698L294.103 166.724L294.644 166.759L295.158 166.698L295.55 166.646L295.864 166.533L296.126 166.385L296.379 166.193L296.553 166.071L296.666 165.932L296.326 165.906L296.012 165.845L295.724 165.758L295.471 165.68L295.209 165.567L295.009 165.48L294.87 165.367L294.783 165.306L294.957 165.254L295.21 165.167L295.55 165.106L295.75 165.08L296.099 164.941L296.326 164.828L296.553 164.715L296.692 164.541L296.919 164.341L297.006 164.149L297.093 163.949L297.145 163.661L297.232 163.295L296.944 163.434L296.805 163.486L296.552 163.521L296.212 163.547L295.637 163.634H295.156L294.956 163.573L295.008 163.521L295.208 163.434L295.408 163.295L295.67 163.095L295.984 162.921L296.211 162.721L296.516 162.381L296.778 162.015L296.891 161.788L297.004 161.413L297.056 161.073L297.117 160.785L297.091 160.558V160.41L297.004 160.523L296.777 160.697L296.664 160.81L296.324 161.037L295.984 161.237L295.722 161.376L295.295 161.55L294.955 161.689L294.589 161.802L294.275 161.915L293.935 162.054L293.735 162.115L293.473 162.228L293.273 162.367L293.081 162.594L292.933 162.821L292.82 163.083L292.794 163.31V163.71L292.707 163.937L292.568 164.103L292.28 164.19H291.966L291.8 164.103L291.713 164.016L291.6 163.877L291.574 163.624V162.682L291.626 161.967L291.539 161.74L291.373 161.513L291.225 161.347L291.109 161.238Z" fill="black"/>
<path fill-rule="evenodd" clip-rule="evenodd" d="M290.316 161.944C290.355 161.947 290.393 161.941 290.429 161.928C290.465 161.914 290.498 161.893 290.526 161.866C290.553 161.838 290.574 161.806 290.588 161.769C290.601 161.733 290.607 161.695 290.604 161.656C290.603 161.58 290.573 161.507 290.519 161.453C290.465 161.399 290.392 161.369 290.316 161.368C290.278 161.368 290.24 161.375 290.205 161.389C290.17 161.403 290.138 161.425 290.111 161.451C290.084 161.478 290.063 161.51 290.049 161.545C290.035 161.581 290.027 161.618 290.028 161.656C290.026 161.694 290.032 161.733 290.046 161.769C290.06 161.804 290.081 161.837 290.108 161.864C290.135 161.891 290.168 161.912 290.204 161.926C290.239 161.94 290.278 161.946 290.316 161.944Z" fill="#FFDB01"/>
<path fill-rule="evenodd" clip-rule="evenodd" d="M293.985 172.668L293.811 172.842L293.672 173.069L293.585 173.269L293.524 173.382L293.437 173.182L293.411 172.955L293.245 172.702L292.992 172.502L292.739 172.389L292.486 172.302H292.259L292.285 172.616L292.311 172.843L292.424 173.017L292.563 173.217L292.763 173.391L292.963 173.53L293.216 173.556L293.443 173.53L293.382 173.957L293.356 174.245L293.33 174.559V174.733H294.071V174.367L294.097 174.001L294.149 173.661L294.175 173.373L294.262 173.146L294.349 172.946L294.175 172.632L294.062 172.571L293.984 172.671L293.985 172.668ZM296.034 169.939L296.095 169.739L296.034 169.486L295.895 169.399L295.721 169.347L295.974 169.286L296.174 169.373L296.287 169.486L296.348 169.66L296.714 169.372L296.54 169.825L296.74 169.851L296.914 169.912L297.053 170.086L297.079 170.286L296.905 170.147L296.766 170.034L296.627 170.095L296.514 170.121L296.375 170.234L296.035 169.934L296.034 169.939ZM295.807 169.965C295.684 169.901 295.549 169.865 295.41 169.859C295.272 169.854 295.134 169.879 295.006 169.933C294.878 169.988 294.765 170.069 294.672 170.173C294.58 170.276 294.512 170.399 294.473 170.532C294.444 170.747 294.474 170.965 294.558 171.164C294.643 171.363 294.779 171.536 294.953 171.665L294.814 171.639L294.614 171.578L294.501 171.517L294.362 171.43L294.275 171.317L294.249 171.43V171.517L294.301 171.63L294.44 171.717L294.553 171.778L294.666 171.804L294.84 171.865L294.727 172.004L294.927 172.065L295.014 171.926L295.101 171.978V172.091L295.214 172.152L295.327 172.178L295.527 172.204L295.727 172.178L295.927 172.039H295.759L295.532 172.013L295.419 171.952L295.28 171.865V171.856C295.327 171.882 295.377 171.902 295.428 171.917C295.554 171.976 295.691 172.006 295.83 172.007C295.968 172.008 296.106 171.979 296.232 171.922C296.359 171.865 296.472 171.782 296.563 171.677C296.654 171.573 296.722 171.45 296.762 171.317C296.785 171.017 296.702 170.718 296.529 170.471C296.356 170.225 296.102 170.046 295.812 169.966L295.807 169.965ZM296.207 170.253L296.233 170.541L296.181 170.855L296.12 171.082L295.981 171.309L295.781 171.448L295.607 171.561L295.38 171.648L295.18 171.674L295.093 171.5L295.067 171.212L295.093 170.924L295.232 170.724L295.406 170.471L295.633 170.332L295.833 170.245H296.208L296.207 170.253Z" fill="#FC0701"/>
<path fill-rule="evenodd" clip-rule="evenodd" d="M281.449 159.383L281.78 159.522H282.233L282.486 159.496L282.373 159.609L282.286 159.696L282.086 159.809H281.859L281.685 159.784H281.546C281.407 159.697 281.407 159.923 281.407 159.923L281.494 160.211L281.581 160.499L281.781 160.865L281.894 161.153L281.955 161.441L281.929 161.781L281.868 162.095L281.807 162.409L281.781 162.636L281.72 162.889L281.354 162.863L281.406 162.636L281.467 162.348L281.493 162.008L281.519 161.781V161.64L281.319 161.666L281.119 161.64L280.945 161.579L280.806 161.518L280.667 161.431L280.58 161.318L280.467 161.179L280.38 161.04L280.267 160.813L280.607 160.752L281.007 160.891L281.234 161.004L281.408 161.143L281.547 161.343V161.055L281.373 160.715L281.234 160.488L281.208 160.288L281.147 160.061L281.121 159.808L281.06 159.747H280.668L280.441 159.66C280.341 159.592 280.255 159.507 280.188 159.407L280.476 159.433L280.703 159.459H281.017L281.217 159.346H281.287L281.13 159.32L280.842 159.207L280.642 159.068L280.415 158.894L280.241 158.641L280.215 158.214L280.302 157.874L280.476 157.647L280.729 157.42L281.017 157.307L281.331 157.281L281.645 157.307L281.985 157.42L282.238 157.559L282.438 157.733L282.577 157.986L282.629 158.326L282.542 158.726L282.403 158.926L282.203 159.126L282.003 159.265L281.715 159.352L281.453 159.378L281.449 159.383ZM281.379 157.083L281.719 157.109L281.78 156.97L281.893 156.857L282.12 156.718L281.981 156.631L281.842 156.657L281.729 156.744L281.616 156.344L281.503 156.71L281.329 156.571L281.155 156.545L281.042 156.606L281.216 156.693L281.329 156.806L281.381 157.085L281.379 157.083ZM281.693 159.158L281.832 158.931L281.945 158.678L282.032 158.312L281.971 157.912L281.832 157.624L281.579 157.485L281.291 157.511L281.064 157.685L280.864 158.025L280.838 158.313V158.566L280.925 158.906L281.091 159.133L281.23 159.22L281.457 159.246L281.692 159.159L281.693 159.158Z" fill="#FFDB01"/>
<path fill-rule="evenodd" clip-rule="evenodd" d="M281.502 167.324L281.816 167.472L282.043 167.498L282.27 167.472L282.558 167.446L282.419 167.585L282.332 167.672L282.132 167.759H281.905L281.731 167.733H281.592C281.479 167.646 281.479 167.872 281.479 167.872L281.54 168.186L281.653 168.474L281.827 168.814L281.94 169.102L282.001 169.39L281.975 169.73L281.914 170.044L281.853 170.358L281.827 170.611L281.801 170.838L281.401 170.812L281.462 170.612L281.514 170.298L281.54 169.984L281.566 169.757V169.581L281.366 169.607H281.192L280.992 169.546L280.879 169.459L280.74 169.372L280.627 169.259L280.514 169.146L280.427 168.972L280.314 168.745L280.654 168.719L281.054 168.832L281.281 168.945L281.481 169.084L281.62 169.284L281.594 168.996L281.42 168.682L281.307 168.429L281.246 168.229L281.185 168.002V167.749L281.098 167.688H280.732L280.479 167.601C280.384 167.538 280.299 167.462 280.226 167.374L280.514 167.4H281.055L281.255 167.287H281.32L281.163 167.261L280.875 167.174L280.675 167.035L280.475 166.835L280.301 166.582L280.275 166.182L280.327 165.816L280.501 165.589L280.754 165.389L281.068 165.276L281.382 165.25L281.67 165.276L282.01 165.363L282.298 165.537L282.472 165.676L282.611 165.929L282.663 166.269L282.576 166.669L282.437 166.896L282.237 167.07L282.037 167.209L281.784 167.296L281.505 167.322L281.502 167.324ZM281.441 165.049H281.781L281.842 164.91L281.955 164.797L282.208 164.658L282.069 164.597H281.895L281.782 164.684L281.695 164.284L281.556 164.65L281.417 164.537L281.243 164.485L281.104 164.572L281.304 164.633L281.417 164.746L281.443 165.051L281.441 165.049ZM281.755 167.098L281.894 166.871L282.033 166.618L282.094 166.278L282.033 165.851L281.894 165.563L281.641 165.424L281.353 165.45L281.126 165.65L280.926 165.99L280.9 166.243V166.531L280.987 166.845L281.161 167.072L281.335 167.185H281.562L281.755 167.098Z" fill="#FFDB01"/>
<path fill-rule="evenodd" clip-rule="evenodd" d="M282.138 174.847L282.495 174.747L282.669 174.608L282.835 174.434L283.035 174.26V174.434L283.009 174.547L282.922 174.774L282.748 174.913L282.609 174.974L282.496 175.096C282.357 175.096 282.496 175.27 282.496 175.27L282.723 175.47L282.976 175.609L283.376 175.783L283.638 175.922L283.865 176.122L284.065 176.375L284.239 176.663L284.378 176.916L284.491 177.143L284.63 177.343L284.316 177.57L284.229 177.37L284.055 177.117L283.881 176.829L283.768 176.629L283.655 176.516L283.516 176.69L283.377 176.777L283.203 176.864L283.064 176.89L282.89 176.916L282.716 176.89L282.577 176.864L282.403 176.803L282.176 176.69L282.403 176.437L282.769 176.298L283.022 176.246H283.275L283.502 176.298L283.302 176.098L282.962 175.959L282.709 175.846L282.535 175.733L282.335 175.559L282.196 175.385H282.083L281.909 175.524L281.796 175.637L281.543 175.698C281.432 175.731 281.314 175.731 281.203 175.698L281.43 175.559L281.63 175.42L281.857 175.22L281.944 174.993L281.857 175.054L281.569 175.167L281.316 175.193L281.028 175.167L280.74 175.106L280.452 174.792L280.278 174.452L280.252 174.199L280.304 173.859L280.478 173.606L280.678 173.379L280.931 173.205L281.245 173.031L281.559 173.005H281.812L282.065 173.092L282.318 173.345L282.518 173.685L282.544 173.938L282.518 174.226L282.457 174.453L282.318 174.68L282.144 174.854L282.138 174.847ZM280.647 173.156L280.935 172.956L280.874 172.817V172.643L280.961 172.355L280.822 172.407L280.709 172.52L280.683 172.659L280.369 172.406L280.482 172.772H280.282L280.143 172.859L280.091 172.972L280.265 172.92L280.439 172.946L280.648 173.155L280.647 173.156ZM282.208 174.525L282.182 174.272L282.121 173.984L281.921 173.67L281.607 173.382L281.319 173.269L281.031 173.295L280.839 173.522L280.778 173.81L280.839 174.176L281.013 174.403L281.187 174.63L281.449 174.83L281.737 174.891L281.937 174.865L282.111 174.726L282.211 174.526L282.208 174.525Z" fill="#FFDB01"/>
<path fill-rule="evenodd" clip-rule="evenodd" d="M290.289 178.004L290.463 177.704L290.489 177.477V177.25L290.515 176.962L290.602 177.101L290.689 177.214L290.776 177.414V177.614L290.715 177.788L290.689 177.927C290.602 178.066 290.828 178.066 290.828 178.066L291.142 178.014L291.43 177.953L291.805 177.779L292.093 177.718L292.407 177.692L292.721 177.753L293.035 177.814L293.323 177.901L293.576 177.962L293.838 178.023L293.751 178.423L293.551 178.336L293.272 178.249L292.932 178.188L292.732 178.127H292.558V178.327L292.532 178.527L292.48 178.701L292.393 178.814L292.306 178.953L292.167 179.04L292.054 179.127L291.88 179.214L291.627 179.301V178.961L291.766 178.595L291.905 178.368L292.079 178.194L292.279 178.081H291.991L291.651 178.22L291.398 178.307L291.198 178.333L290.971 178.359H290.692L290.631 178.446L290.605 178.673V178.812L290.492 179.039C290.418 179.125 290.333 179.201 290.239 179.266L290.265 179.013L290.326 178.76L290.352 178.446L290.252 178.263L290.243 178.333L290.104 178.621L289.93 178.795L289.73 179.022L289.477 179.162L289.05 179.136L288.71 179.023L288.483 178.849L288.309 178.561L288.222 178.273V177.959L288.283 177.645L288.396 177.305L288.596 177.078L288.77 176.904L289.023 176.765H289.363L289.763 176.878L289.963 177.017L290.137 177.244L290.25 177.444L290.311 177.732V177.994L290.289 178.004ZM287.989 177.882L288.05 177.542L287.937 177.481L287.798 177.368L287.685 177.115L287.598 177.228V177.402L287.685 177.515L287.285 177.576L287.625 177.75L287.512 177.889L287.451 178.063L287.512 178.202L287.573 178.002L287.712 177.915L287.991 177.88L287.989 177.882ZM290.089 177.734L289.889 177.595L289.636 177.421L289.296 177.334L288.869 177.36L288.581 177.475L288.407 177.702V177.99L288.581 178.243L288.895 178.47L289.183 178.496L289.436 178.522L289.776 178.461L290.003 178.322L290.116 178.183L290.142 177.956L290.09 177.738L290.089 177.734Z" fill="#FFDB01"/>
<path fill-rule="evenodd" clip-rule="evenodd" d="M287.416 157.613L287.268 157.936L287.242 158.163L287.268 158.39L287.294 158.678L287.181 158.539L287.094 158.452L286.981 158.252V158.025L287.007 157.851V157.712C287.094 157.599 286.868 157.599 286.868 157.599L286.589 157.66L286.301 157.773L285.935 157.947L285.647 158.06L285.359 158.112L285.019 158.086L284.705 158.025L284.391 157.973L284.164 157.947L283.911 157.921L283.937 157.521L284.164 157.582L284.452 157.643L284.792 157.669L284.992 157.695H285.166L285.14 157.495V157.321L285.227 157.121L285.288 157.008L285.375 156.869L285.488 156.756L285.601 156.643L285.775 156.556L286.002 156.443L286.063 156.783L285.924 157.183L285.811 157.41L285.672 157.61L285.472 157.749L285.76 157.723L286.074 157.549L286.327 157.436L286.527 157.375L286.754 157.314H287.007L287.059 157.227V156.861L287.146 156.608C287.216 156.51 287.301 156.424 287.399 156.355L287.373 156.643L287.347 156.87V157.184L287.46 157.384V157.428L287.486 157.262L287.573 156.974L287.712 156.774L287.912 156.547L288.165 156.373L288.592 156.347L288.932 156.434L289.159 156.608L289.359 156.861L289.498 157.149V157.777L289.385 158.117L289.211 158.37L289.072 158.57L288.819 158.709L288.479 158.77L288.079 158.683L287.852 158.544L287.678 158.344L287.539 158.144L287.452 157.856L287.417 157.621L287.416 157.613ZM289.716 157.535L289.69 157.875L289.829 157.936L289.942 158.049L290.081 158.276L290.168 158.137L290.142 157.998L290.055 157.885L290.455 157.798L290.089 157.659L290.202 157.52L290.263 157.346L290.202 157.207L290.115 157.381L290.002 157.52L289.714 157.537L289.716 157.535ZM287.632 157.849L287.859 157.988L288.112 158.101L288.478 158.188L288.878 158.127L289.166 157.988L289.305 157.735L289.279 157.447L289.105 157.22L288.765 157.02L288.477 156.994H288.224L287.884 157.081L287.657 157.255L287.57 157.394L287.544 157.647L287.631 157.847L287.632 157.849Z" fill="#FFDB01"/>
<path fill-rule="evenodd" clip-rule="evenodd" d="M299.984 167.882L300.106 167.982H300.333L300.586 167.921L300.952 167.808L300.778 168.096L300.639 168.209L300.439 168.235H300.239L300.065 168.209L300.004 168.462L299.943 168.75L299.891 168.977L299.778 169.23L299.717 169.518L299.665 169.858L299.804 169.57L299.978 169.457L300.178 169.37L300.431 169.344L300.605 169.37L300.744 169.396L300.657 169.623L300.491 169.797L300.352 169.971L300.099 170.084L299.811 170.145L299.672 170.058L299.646 170.171L299.672 170.459L299.698 170.747L299.724 170.947L299.75 171.147C299.663 171.26 299.375 171.208 299.375 171.208L299.288 170.894L299.262 170.467V170.101L299.288 169.701L299.375 169.361L299.514 168.995L299.627 168.742L299.653 168.489L299.679 168.236L299.479 168.297H299.279L299.052 168.236L298.913 168.123L298.8 167.896L299.14 168.009H299.506L299.637 167.922H299.454L299.14 167.835L298.852 167.661L298.678 167.434L298.565 167.146V166.893L298.678 166.527L298.905 166.274L299.132 166.135L299.359 166.074L299.647 166.022H299.935L300.162 166.048L300.45 166.135L300.703 166.274L300.903 166.588L300.99 166.902L300.929 167.216L300.79 167.443L300.677 167.643L300.45 167.817L300.162 167.904L299.988 167.887L299.984 167.882ZM299.504 165.615L299.565 165.754H299.818L299.844 165.615L299.984 165.502L300.184 165.363L299.931 165.337L299.791 165.398L299.652 165.032L299.565 165.398L299.365 165.372L299.138 165.398L299.365 165.485L299.504 165.615ZM300.045 166.103L300.219 166.242L300.393 166.469L300.48 166.896L300.419 167.236L300.279 167.602L300.026 167.776L299.66 167.802L299.433 167.689L299.233 167.489L299.172 167.062L299.198 166.696L299.285 166.469L299.398 166.295L299.572 166.121L299.746 166.06L300.046 166.104L300.045 166.103Z" fill="#FFDB01"/>
<path fill-rule="evenodd" clip-rule="evenodd" d="M299.923 159.538L300.023 159.616L300.223 159.642L300.511 159.59L300.851 159.451L300.677 159.765L300.537 159.852L300.363 159.913H300.136L299.962 159.887L299.936 160.14L299.875 160.393L299.788 160.62L299.675 160.908L299.614 161.161L299.562 161.527L299.736 161.239L299.91 161.1L300.084 161.013L300.337 160.987L300.511 161.013L300.677 161.074L300.564 161.274L300.425 161.448L300.251 161.648L300.024 161.761L299.71 161.787L299.597 161.726L299.545 161.839L299.597 162.092V162.38L299.623 162.58L299.649 162.78C299.588 162.893 299.283 162.841 299.283 162.841L299.222 162.527L299.161 162.1V161.734L299.187 161.334L299.274 160.994L299.448 160.628L299.535 160.375L299.587 160.122V159.895L299.413 159.956H299.186L298.986 159.895L298.846 159.756L298.707 159.529L299.073 159.642L299.439 159.668L299.539 159.581H299.321L299.007 159.468L298.719 159.294L298.58 159.094L298.467 158.806V158.518L298.554 158.152L298.781 157.899L299.034 157.76L299.234 157.708L299.522 157.656L299.81 157.682L300.063 157.708L300.316 157.76L300.569 157.934L300.769 158.222L300.856 158.536L300.804 158.85L300.665 159.103L300.552 159.277L300.325 159.451L300.037 159.564L299.924 159.538H299.923ZM299.367 157.252L299.428 157.391L299.681 157.417L299.742 157.243L299.855 157.13L300.082 157.017L299.829 156.991L299.655 157.017L299.516 156.651L299.429 157.051L299.229 156.999L299.002 157.051L299.229 157.138L299.368 157.251L299.367 157.252ZM299.934 157.731L300.134 157.905L300.273 158.105L300.36 158.532L300.334 158.872L300.195 159.238L299.907 159.438H299.541L299.314 159.325L299.148 159.125L299.061 158.698L299.087 158.332L299.2 158.105L299.313 157.931L299.452 157.757L299.652 157.696L299.931 157.731H299.934Z" fill="#FFDB01"/>
<path fill-rule="evenodd" clip-rule="evenodd" d="M294.029 157.498L294.129 157.398V157.171L294.068 156.918L293.955 156.552L294.243 156.726L294.356 156.865L294.382 157.065V157.265L294.356 157.439L294.609 157.483L294.897 157.509L295.124 157.596L295.386 157.709L295.674 157.77L296.014 157.831L295.726 157.692L295.613 157.518L295.526 157.318L295.5 157.065L295.526 156.891L295.552 156.717L295.779 156.83L295.953 157.004L296.127 157.143L296.24 157.396L296.301 157.684L296.214 157.823L296.327 157.849L296.615 157.823L296.903 157.797L297.103 157.771L297.303 157.745C297.416 157.832 297.364 158.111 297.364 158.111L297.05 158.198L296.623 158.224H296.248L295.848 158.198L295.508 158.111L295.142 157.972L294.889 157.859L294.643 157.83L294.39 157.804L294.442 157.978V158.205L294.39 158.432L294.277 158.545L294.05 158.684L294.163 158.318V157.978L294.076 157.847V158.065L293.989 158.405L293.815 158.658L293.588 158.832L293.3 158.945H293.043L292.677 158.858L292.424 158.631L292.285 158.378L292.224 158.151L292.163 157.863V157.61L292.189 157.357L292.276 157.069L292.416 156.816L292.73 156.616L293.044 156.529L293.358 156.59L293.585 156.729L293.785 156.842L293.959 157.069L294.046 157.357L294.029 157.496V157.498ZM291.736 158.021L291.875 157.96V157.73L291.701 157.669L291.588 157.53L291.475 157.33L291.449 157.583L291.51 157.722L291.144 157.861L291.51 157.948L291.484 158.148L291.51 158.375L291.597 158.148L291.736 158.017V158.021ZM292.189 157.507L292.363 157.307L292.59 157.168L293.017 157.055L293.331 157.116L293.706 157.255L293.906 157.508L293.932 157.874L293.793 158.101L293.593 158.301L293.193 158.362L292.827 158.336L292.574 158.249L292.435 158.136L292.235 157.962L292.209 157.788V157.509L292.189 157.507Z" fill="#FFDB01"/>
<path fill-rule="evenodd" clip-rule="evenodd" d="M300.385 173.809L300.359 173.948L300.498 174.148L300.672 174.061H300.846L301.073 174.122L300.899 173.922L300.759 173.861L300.933 173.495L300.593 173.695L300.506 173.521L300.306 173.408L300.393 173.608V173.808L300.385 173.809ZM299.164 175.814V175.945L299.338 176.084L299.565 176.223L299.905 176.397L299.565 176.51L299.391 176.449L299.217 176.362L299.078 176.188L298.965 176.049L298.765 176.223L298.538 176.362L298.338 176.475L298.05 176.588L297.823 176.727L297.535 176.954L297.823 176.841L298.05 176.867L298.25 176.954L298.45 177.12L298.537 177.259L298.624 177.398L298.397 177.459L298.17 177.485H297.943L297.69 177.398L297.437 177.224L297.411 177.085L297.298 177.137L297.124 177.337L296.95 177.564L296.837 177.738L296.698 177.877C296.585 177.903 296.41 177.677 296.41 177.677L296.584 177.389L296.837 177.049L297.125 176.796L297.413 176.543L297.727 176.343L298.102 176.204L298.355 176.091L298.555 175.952L298.729 175.778L298.555 175.691L298.416 175.552L298.303 175.352V175.178L298.39 174.951L298.529 175.265L298.782 175.553L298.913 175.57L298.782 175.439L298.643 175.125L298.556 174.811L298.582 174.558L298.695 174.27L298.895 174.096L299.235 173.869H299.575L299.828 173.93L300.028 174.043L300.281 174.217L300.455 174.417L300.629 174.617L300.768 174.87L300.82 175.158L300.768 175.498L300.594 175.786L300.341 175.986L300.053 176.047L299.853 176.099L299.574 176.047L299.286 175.934L299.164 175.812V175.814ZM300.446 174.55L300.472 174.777L300.446 175.03L300.193 175.396L299.94 175.623L299.574 175.762L299.26 175.71L298.972 175.483L298.885 175.23L298.911 174.942L299.164 174.602L299.417 174.375L299.67 174.262L299.87 174.236H300.097L300.271 174.323L300.445 174.55H300.446Z" fill="#FFDB01"/>
<g filter="url(#filter1_b_59260_23393)">
<rect x="21" y="169.5" width="157" height="23" rx="11.5" fill="#C0D73B" fill-opacity="0.1"/>
<rect x="21.5647" y="170.065" width="155.87" height="21.8705" rx="10.9353" stroke="#5A63FD" stroke-width="1.1295"/>
</g>
<path d="M33.5921 178.947V178.034C34.4525 177.95 35.0525 177.811 35.3922 177.617C35.732 177.419 35.9857 176.953 36.1533 176.221H37.0931V185.658H35.8224V178.947H33.5921ZM43.5061 176.181C44.7326 176.181 45.6195 176.686 46.1666 177.697C46.5901 178.478 46.8019 179.547 46.8019 180.906C46.8019 182.195 46.61 183.26 46.2261 184.103C45.6702 185.312 44.7613 185.916 43.4995 185.916C42.3611 185.916 41.514 185.422 40.9581 184.434C40.4948 183.609 40.2632 182.501 40.2632 181.112C40.2632 180.035 40.4022 179.111 40.6801 178.339C41.2008 176.9 42.1427 176.181 43.5061 176.181ZM43.4928 184.831C44.1105 184.831 44.6025 184.557 44.9687 184.01C45.3349 183.463 45.518 182.444 45.518 180.953C45.518 179.876 45.3856 178.992 45.1209 178.299C44.8562 177.602 44.3422 177.253 43.5789 177.253C42.8774 177.253 42.3634 177.584 42.0369 178.246C41.7148 178.903 41.5537 179.874 41.5537 181.158C41.5537 182.124 41.6574 182.901 41.8648 183.487C42.1825 184.383 42.7251 184.831 43.4928 184.831ZM48.6815 178.947V178.034C49.5418 177.95 50.1419 177.811 50.4816 177.617C50.8213 177.419 51.075 176.953 51.2427 176.221H52.1825V185.658H50.9118V178.947H48.6815ZM55.3526 185.658C55.3967 184.842 55.5643 184.132 55.8555 183.527C56.1512 182.923 56.7247 182.373 57.5763 181.879L58.8469 181.145C59.4161 180.814 59.8154 180.531 60.0448 180.298C60.4066 179.931 60.5875 179.512 60.5875 179.04C60.5875 178.489 60.4221 178.052 60.0912 177.73C59.7602 177.403 59.319 177.24 58.7675 177.24C57.9513 177.24 57.3865 177.549 57.0733 178.166C56.9056 178.497 56.813 178.956 56.7953 179.543H55.5842C55.5974 178.718 55.7497 178.045 56.0408 177.525C56.5571 176.607 57.4682 176.148 58.7741 176.148C59.8595 176.148 60.6515 176.441 61.1501 177.028C61.653 177.615 61.9045 178.268 61.9045 178.987C61.9045 179.746 61.6376 180.395 61.1037 180.933C60.7949 181.246 60.2412 181.626 59.4426 182.071L58.5359 182.574C58.1035 182.812 57.7638 183.04 57.5167 183.256C57.0755 183.64 56.7975 184.065 56.6828 184.533H61.8582V185.658H55.3526ZM63.0362 181.27H66.3585V182.495H63.0362V181.27ZM70.6537 176.181C71.8803 176.181 72.7671 176.686 73.3142 177.697C73.7378 178.478 73.9495 179.547 73.9495 180.906C73.9495 182.195 73.7576 183.26 73.3738 184.103C72.8178 185.312 71.9089 185.916 70.6471 185.916C69.5088 185.916 68.6616 185.422 68.1057 184.434C67.6425 183.609 67.4108 182.501 67.4108 181.112C67.4108 180.035 67.5498 179.111 67.8278 178.339C68.3484 176.9 69.2904 176.181 70.6537 176.181ZM70.6405 184.831C71.2582 184.831 71.7501 184.557 72.1163 184.01C72.4825 183.463 72.6656 182.444 72.6656 180.953C72.6656 179.876 72.5333 178.992 72.2685 178.299C72.0038 177.602 71.4898 177.253 70.7265 177.253C70.025 177.253 69.511 177.584 69.1845 178.246C68.8624 178.903 68.7014 179.874 68.7014 181.158C68.7014 182.124 68.805 182.901 69.0124 183.487C69.3301 184.383 69.8728 184.831 70.6405 184.831ZM78.1984 176.181C79.425 176.181 80.3118 176.686 80.8589 177.697C81.2824 178.478 81.4942 179.547 81.4942 180.906C81.4942 182.195 81.3023 183.26 80.9184 184.103C80.3625 185.312 79.4536 185.916 78.1918 185.916C77.0534 185.916 76.2063 185.422 75.6504 184.434C75.1871 183.609 74.9555 182.501 74.9555 181.112C74.9555 180.035 75.0945 179.111 75.3724 178.339C75.8931 176.9 76.8351 176.181 78.1984 176.181ZM78.1852 184.831C78.8028 184.831 79.2948 184.557 79.661 184.01C80.0272 183.463 80.2103 182.444 80.2103 180.953C80.2103 179.876 80.0779 178.992 79.8132 178.299C79.5485 177.602 79.0345 177.253 78.2712 177.253C77.5697 177.253 77.0557 177.584 76.7292 178.246C76.4071 178.903 76.246 179.874 76.246 181.158C76.246 182.124 76.3497 182.901 76.5571 183.487C76.8748 184.383 77.4174 184.831 78.1852 184.831ZM85.7431 176.181C86.9696 176.181 87.8565 176.686 88.4036 177.697C88.8271 178.478 89.0389 179.547 89.0389 180.906C89.0389 182.195 88.847 183.26 88.4631 184.103C87.9072 185.312 86.9983 185.916 85.7365 185.916C84.5981 185.916 83.751 185.422 83.1951 184.434C82.7318 183.609 82.5002 182.501 82.5002 181.112C82.5002 180.035 82.6392 179.111 82.9171 178.339C83.4378 176.9 84.3797 176.181 85.7431 176.181ZM85.7298 184.831C86.3475 184.831 86.8395 184.557 87.2057 184.01C87.5719 183.463 87.755 182.444 87.755 180.953C87.755 179.876 87.6226 178.992 87.3579 178.299C87.0932 177.602 86.5792 177.253 85.8159 177.253C85.1143 177.253 84.6003 177.584 84.2738 178.246C83.9518 178.903 83.7907 179.874 83.7907 181.158C83.7907 182.124 83.8944 182.901 84.1018 183.487C84.4194 184.383 84.9621 184.831 85.7298 184.831ZM93.2878 176.181C94.5143 176.181 95.4011 176.686 95.9482 177.697C96.3718 178.478 96.5836 179.547 96.5836 180.906C96.5836 182.195 96.3917 183.26 96.0078 184.103C95.4519 185.312 94.543 185.916 93.2811 185.916C92.1428 185.916 91.2957 185.422 90.7398 184.434C90.2765 183.609 90.0449 182.501 90.0449 181.112C90.0449 180.035 90.1838 179.111 90.4618 178.339C90.9824 176.9 91.9244 176.181 93.2878 176.181ZM93.2745 184.831C93.8922 184.831 94.3842 184.557 94.7504 184.01C95.1166 183.463 95.2997 182.444 95.2997 180.953C95.2997 179.876 95.1673 178.992 94.9026 178.299C94.6379 177.602 94.1238 177.253 93.3606 177.253C92.659 177.253 92.145 177.584 91.8185 178.246C91.4964 178.903 91.3354 179.874 91.3354 181.158C91.3354 182.124 91.4391 182.901 91.6465 183.487C91.9641 184.383 92.5068 184.831 93.2745 184.831ZM97.7285 181.27H101.051V182.495H97.7285V181.27ZM105.346 176.181C106.573 176.181 107.459 176.686 108.007 177.697C108.43 178.478 108.642 179.547 108.642 180.906C108.642 182.195 108.45 183.26 108.066 184.103C107.51 185.312 106.601 185.916 105.339 185.916C104.201 185.916 103.354 185.422 102.798 184.434C102.335 183.609 102.103 182.501 102.103 181.112C102.103 180.035 102.242 179.111 102.52 178.339C103.041 176.9 103.983 176.181 105.346 176.181ZM105.333 184.831C105.95 184.831 106.442 184.557 106.809 184.01C107.175 183.463 107.358 182.444 107.358 180.953C107.358 179.876 107.226 178.992 106.961 178.299C106.696 177.602 106.182 177.253 105.419 177.253C104.717 177.253 104.203 177.584 103.877 178.246C103.555 178.903 103.394 179.874 103.394 181.158C103.394 182.124 103.497 182.901 103.705 183.487C104.022 184.383 104.565 184.831 105.333 184.831ZM110.899 183.243C110.978 183.922 111.294 184.392 111.845 184.652C112.127 184.785 112.454 184.851 112.825 184.851C113.53 184.851 114.053 184.626 114.393 184.176C114.733 183.726 114.903 183.227 114.903 182.68C114.903 182.018 114.7 181.506 114.294 181.145C113.892 180.783 113.409 180.602 112.844 180.602C112.434 180.602 112.081 180.681 111.785 180.84C111.494 180.999 111.245 181.22 111.038 181.502L110.005 181.442L110.727 176.34H115.65V177.491H111.62L111.216 180.125C111.437 179.958 111.646 179.832 111.845 179.748C112.198 179.603 112.606 179.53 113.069 179.53C113.939 179.53 114.675 179.81 115.28 180.37C115.884 180.931 116.187 181.641 116.187 182.501C116.187 183.397 115.909 184.187 115.353 184.871C114.801 185.555 113.919 185.896 112.705 185.896C111.933 185.896 111.249 185.68 110.654 185.248C110.063 184.811 109.732 184.143 109.661 183.243H110.899ZM118.066 178.947V178.034C118.926 177.95 119.526 177.811 119.866 177.617C120.206 177.419 120.46 176.953 120.627 176.221H121.567V185.658H120.296V178.947H118.066ZM124.737 185.658C124.781 184.842 124.949 184.132 125.24 183.527C125.536 182.923 126.109 182.373 126.961 181.879L128.232 181.145C128.801 180.814 129.2 180.531 129.429 180.298C129.791 179.931 129.972 179.512 129.972 179.04C129.972 178.489 129.807 178.052 129.476 177.73C129.145 177.403 128.704 177.24 128.152 177.24C127.336 177.24 126.771 177.549 126.458 178.166C126.29 178.497 126.198 178.956 126.18 179.543H124.969C124.982 178.718 125.134 178.045 125.425 177.525C125.942 176.607 126.853 176.148 128.159 176.148C129.244 176.148 130.036 176.441 130.535 177.028C131.038 177.615 131.289 178.268 131.289 178.987C131.289 179.746 131.022 180.395 130.488 180.933C130.179 181.246 129.626 181.626 128.827 182.071L127.92 182.574C127.488 182.812 127.148 183.04 126.901 183.256C126.46 183.64 126.182 184.065 126.067 184.533H131.243V185.658H124.737ZM132.421 181.27H135.743V182.495H132.421V181.27ZM137.669 178.947V178.034C138.529 177.95 139.129 177.811 139.469 177.617C139.809 177.419 140.063 176.953 140.23 176.221H141.17V185.658H139.899V178.947H137.669ZM144.34 185.658C144.384 184.842 144.552 184.132 144.843 183.527C145.139 182.923 145.712 182.373 146.564 181.879L147.834 181.145C148.404 180.814 148.803 180.531 149.032 180.298C149.394 179.931 149.575 179.512 149.575 179.04C149.575 178.489 149.41 178.052 149.079 177.73C148.748 177.403 148.307 177.24 147.755 177.24C146.939 177.24 146.374 177.549 146.061 178.166C145.893 178.497 145.801 178.956 145.783 179.543H144.572C144.585 178.718 144.737 178.045 145.028 177.525C145.545 176.607 146.456 176.148 147.762 176.148C148.847 176.148 149.639 176.441 150.138 177.028C150.641 177.615 150.892 178.268 150.892 178.987C150.892 179.746 150.625 180.395 150.091 180.933C149.782 181.246 149.229 181.626 148.43 182.071L147.523 182.574C147.091 182.812 146.751 183.04 146.504 183.256C146.063 183.64 145.785 184.065 145.67 184.533H150.846V185.658H144.34ZM154.982 185.916C153.861 185.916 153.047 185.61 152.54 184.996C152.037 184.379 151.786 183.629 151.786 182.746H153.03C153.083 183.36 153.197 183.805 153.374 184.083C153.683 184.582 154.241 184.831 155.048 184.831C155.675 184.831 156.178 184.663 156.557 184.328C156.937 183.993 157.126 183.56 157.126 183.031C157.126 182.378 156.926 181.921 156.524 181.661C156.127 181.401 155.573 181.27 154.863 181.27C154.784 181.27 154.702 181.273 154.618 181.277C154.539 181.277 154.457 181.279 154.373 181.284V180.231C154.497 180.245 154.6 180.253 154.684 180.258C154.768 180.262 154.859 180.264 154.956 180.264C155.401 180.264 155.767 180.194 156.054 180.053C156.557 179.806 156.809 179.364 156.809 178.729C156.809 178.257 156.641 177.893 156.306 177.637C155.97 177.381 155.58 177.253 155.134 177.253C154.34 177.253 153.791 177.518 153.486 178.047C153.319 178.339 153.224 178.753 153.202 179.292H152.024C152.024 178.586 152.165 177.986 152.447 177.491C152.933 176.609 153.786 176.168 155.009 176.168C155.975 176.168 156.723 176.384 157.252 176.816C157.782 177.244 158.046 177.866 158.046 178.683C158.046 179.265 157.89 179.737 157.576 180.099C157.382 180.324 157.131 180.5 156.822 180.628C157.32 180.765 157.709 181.03 157.987 181.423C158.269 181.811 158.41 182.287 158.41 182.852C158.41 183.757 158.112 184.493 157.517 185.063C156.921 185.632 156.076 185.916 154.982 185.916ZM163.486 182.303V178.008L160.449 182.303H163.486ZM163.506 185.658V183.342H159.35V182.177L163.692 176.155H164.698V182.303H166.094V183.342H164.698V185.658H163.506Z" fill="#212121"/>
<defs>
<filter id="filter0_d_59260_23393" x="0" y="0" width="344" height="221" filterUnits="userSpaceOnUse" color-interpolation-filters="sRGB">
<feFlood flood-opacity="0" result="BackgroundImageFix"/>
<feColorMatrix in="SourceAlpha" type="matrix" values="0 0 0 0 0 0 0 0 0 0 0 0 0 0 0 0 0 0 127 0" result="hardAlpha"/>
<feOffset dx="4" dy="4"/>
<feGaussianBlur stdDeviation="9"/>
<feColorMatrix type="matrix" values="0 0 0 0 0 0 0 0 0 0 0 0 0 0 0 0 0 0 0.161 0"/>
<feBlend mode="normal" in2="BackgroundImageFix" result="effect1_dropShadow_59260_23393"/>
<feBlend mode="normal" in="SourceGraphic" in2="effect1_dropShadow_59260_23393" result="shape"/>
</filter>
<filter id="filter1_b_59260_23393" x="16.482" y="164.982" width="166.036" height="32.036" filterUnits="userSpaceOnUse" color-interpolation-filters="sRGB">
<feFlood flood-opacity="0" result="BackgroundImageFix"/>
<feGaussianBlur in="BackgroundImageFix" stdDeviation="2.25899"/>
<feComposite in2="SourceAlpha" operator="in" result="effect1_backgroundBlur_59260_23393"/>
<feBlend mode="normal" in="SourceGraphic" in2="effect1_backgroundBlur_59260_23393" result="shape"/>
</filter>
</defs>
</svg>
